<?xml version="1.0" standalone="no"?><!DOCTYPE svg PUBLIC "-//W3C//DTD SVG 1.1//EN" "http://www.w3.org/Graphics/SVG/1.1/DTD/svg11.dtd"><svg t="1687851514288" class="icon" viewBox="0 0 1024 1024" version="1.1" xmlns="http://www.w3.org/2000/svg" p-id="3292" xmlns:xlink="http://www.w3.org/1999/xlink" width="200" height="200"><path d="M648.37 512l305-396.49A32 32 0 0 0 928 64H639.51a96.6 96.6 0 0 0-76.09 37.47l-48 62.45L459.6 98a95.83 95.83 0 0 0-73.28-34H96a32 32 0 0 0-24.43 52.67L406.08 512 71.57 907.33A32 32 0 0 0 96 960h290.32a95.83 95.83 0 0 0 73.28-34l55.79-65.93 48 62.45A96.6 96.6 0 0 0 639.51 960H928a32 32 0 0 0 25.36-51.51z m-262-384a32 32 0 0 1 24.43 11.33l64.71 76.48L439.19 263 325 128z m-145.16 0L416 334.57a32 32 0 0 0 49.81-1.17l75.91-98.68 0.26-0.35 72.22-93.88A32.21 32.21 0 0 1 639.51 128H703L446.81 461.06 165 128z m0 768H165l307.11-363 0.18-0.2 0.09-0.1 0.09-0.12c0.3-0.36 0.6-0.72 0.88-1.08l0.05-0.07L783.76 128H863L583.09 491.9z m398.35 0a32.21 32.21 0 0 1-25.36-12.49l-56.52-73.41 41.51-49.1L703 896z m144.25 0l-158-205.41a32.52 32.52 0 0 0-4.7-4.92 32 32 0 0 0-45.1 3.76l-83.51 98.69-0.33 0.39-81.36 96.16A32 32 0 0 1 386.32 896H325l281.81-333.06L863 896z" fill="#515151" p-id="3293"></path></svg>